# xmcd
#
# Track frame offsets: 
#        150
#        10754
#        21594
#        32104
#        43840
#        52423
#        61191
#        73031
#        84606
#        96105
#        109201
#        118973
#        130857
#        146022
#        160091
#        169308
#        182570
#        195014
#        204825
#        216294
#        228021
#        239588
#        251942
#        263181
#
# Disc length: 3654 seconds
#
# Revision: 0
# Processed by: cddbd v1.5.2PL0 Copyright (c) Steve Scherf et al.
# Submitted via: ExactAudioCopy v1.1
#
DISCID=610e4418
DTITLE=Merle Travis - CD4_3 Classic Albums +Singles 1949-56
DYEAR=2016
DGENRE=Country
TTITLE0=Rainy Day Feelin'
TTITLE1=Kinfolks In Carolina
TTITLE2=Ain't That A Cryin' Shame
TTITLE3=A Too Fast Past
TTITLE4=I'll See You In My Dreams
TTITLE5=Cannonball Rag
TTITLE6=Knee Deep In Trouble
TTITLE7=Bayou Baby
TTITLE8=I'll Have Myself A Ball
TTITLE9=Green Cheese
TTITLE10=Shut Up And Drink Your Beer
TTITLE11=Gambler's Guitar
TTITLE12=Re-Enlistment Blues
TTITLE13=Dance Of The Golden Rod
TTITLE14=Jolie Fille (Pretty Girl)
TTITLE15=I Can't Afford The Coffee
TTITLE16=Louisiana Boogie
TTITLE17=Love Must Be Ketchin'
TTITLE18=Cuddle Up A Little Closer, Lovey Mine
TTITLE19=Beer Barrel Polka
TTITLE20=Hunky Dory
TTITLE21=If You Want It, I've Got It
TTITLE22=Turn My Picture Upside Down
TTITLE23=Lazy River
EXTD=
EXTT0=
EXTT1=
EXTT2=
EXTT3=
EXTT4=
EXTT5=
EXTT6=
EXTT7=
EXTT8=
EXTT9=
EXTT10=
EXTT11=
EXTT12=
EXTT13=
EXTT14=
EXTT15=
EXTT16=
EXTT17=
EXTT18=
EXTT19=
EXTT20=
EXTT21=
EXTT22=
EXTT23=
PLAYORDER=
